<?xml version="1.0" standalone="no"?>
<!DOCTYPE svg PUBLIC "-//W3C//DTD SVG 20010904//EN"
 "http://www.w3.org/TR/2001/REC-SVG-20010904/DTD/svg10.dtd">
<svg version="1.0" xmlns="http://www.w3.org/2000/svg"
 width="198.000000pt" height="198.000000pt" viewBox="0 0 198.000000 198.000000"
 preserveAspectRatio="xMidYMid meet">
<metadata>
Created by potrace 1.14, written by Peter Selinger 2001-2017
</metadata>
<g transform="translate(0.000000,198.000000) scale(0.100000,-0.100000)"
fill="#000000" stroke="none">
<path d="M0 990 l0 -990 990 0 990 0 0 990 0 990 -990 0 -990 0 0 -990z m1224
443 c23 -38 55 -89 70 -114 l26 -46 -64 -85 -64 -84 65 -107 64 -106 -68 -91
-68 -90 -131 0 -131 0 -128 201 c-71 111 -128 207 -128 213 0 7 58 94 128 194
l129 182 128 0 128 0 44 -67z m-844 -882 c0 -28 -3 -52 -7 -54 -5 -3 -8 19 -8
49 0 30 3 54 8 54 4 0 7 -22 7 -49z m230 9 c0 -27 4 -40 13 -40 19 0 28 11 19
24 -9 14 -10 56 -1 51 3 -3 9 -19 13 -37 7 -34 -4 -48 -39 -48 -17 0 -20 7
-20 45 0 25 3 45 8 45 4 0 7 -18 7 -40z m249 -17 c1 -14 7 -23 17 -23 12 0 15
7 11 26 -3 16 -1 22 5 16 19 -19 4 -47 -25 -48 -26 -1 -27 1 -26 45 0 35 2 41
9 26 5 -11 9 -30 9 -42z m126 12 c0 -25 -4 -45 -10 -45 -5 0 -10 20 -10 45 0
25 5 45 10 45 6 0 10 -20 10 -45z m137 -10 c2 -19 0 -35 -4 -35 -4 0 -8 16 -8
35 0 19 2 35 4 35 2 0 6 -16 8 -35z m320 1 c2 -19 0 -32 -4 -30 -8 5 -12 64
-4 64 2 0 6 -15 8 -34z m-1012 -6 c0 -16 -4 -30 -8 -30 -5 0 -9 14 -9 30 0 17
4 30 9 30 4 0 8 -13 8 -30z m42 0 c3 -16 1 -30 -4 -30 -4 0 -8 14 -8 30 0 17
2 30 4 30 2 0 6 -13 8 -30z m48 -6 c0 -13 -4 -24 -9 -24 -5 0 -9 13 -9 30 1
35 18 30 18 -6z m40 0 c0 -13 -3 -24 -7 -24 -5 0 -8 13 -8 29 0 16 3 27 8 24
4 -2 7 -15 7 -29z m170 -1 c0 -15 -3 -23 -7 -19 -10 10 -12 56 -1 50 4 -3 8
-17 8 -31z m54 -16 c7 -6 6 -7 -4 -4 -8 2 -16 16 -17 33 -1 25 0 26 4 4 3 -14
10 -29 17 -33z m28 23 c3 -16 1 -30 -4 -30 -4 0 -8 14 -8 30 0 17 2 30 4 30 2
0 6 -13 8 -30z m220 0 c3 -16 1 -30 -4 -30 -4 0 -8 14 -8 30 0 17 2 30 4 30 2
0 6 -13 8 -30z m40 0 c3 -16 1 -30 -4 -30 -4 0 -8 14 -8 30 0 17 2 30 4 30 2
0 6 -13 8 -30z m91 14 c-4 -11 1 -22 12 -30 20 -15 16 -18 -9 -8 -16 6 -22 35
-9 47 11 11 13 8 6 -9z m92 2 c-11 -8 -16 -20 -12 -30 4 -9 2 -16 -3 -16 -6 0
-10 13 -10 28 0 21 5 28 21 29 20 2 20 1 4 -11z m77 -16 c3 -16 1 -30 -4 -30
-4 0 -8 14 -8 30 0 17 2 30 4 30 2 0 6 -13 8 -30z m41 9 c-4 -12 0 -25 8 -30
8 -5 9 -9 3 -9 -6 0 -17 7 -24 15 -10 12 -10 18 0 30 17 20 19 19 13 -6z m119
-9 c3 -16 1 -30 -4 -30 -4 0 -8 14 -8 30 0 17 2 30 4 30 2 0 6 -13 8 -30z m55
5 c6 -14 8 -27 4 -29 -4 -3 -12 8 -18 25 -14 35 -3 39 14 4z m66 4 c-4 -12 0
-25 8 -30 8 -5 9 -9 3 -9 -18 0 -35 26 -28 44 9 24 23 20 17 -5z m-916 -24 c0
-8 -4 -12 -9 -9 -5 3 -6 10 -3 15 9 13 12 11 12 -6z m608 -13 c-8 -8 -25 10
-19 20 4 6 9 5 15 -3 4 -7 6 -15 4 -17z"/>
<path d="M855 1372 c-38 -53 -93 -131 -122 -173 l-52 -75 116 -185 c63 -101
119 -188 123 -193 4 -4 34 26 65 68 l57 76 -61 103 c-33 57 -61 107 -61 111 0
4 27 43 60 86 33 43 60 81 60 84 0 4 -107 185 -114 193 -1 1 -33 -41 -71 -95z"/>
<path d="M1005 1195 c-30 -41 -55 -77 -55 -80 0 -3 51 -5 113 -5 l113 0 50 67
c27 36 53 72 57 80 6 10 -14 13 -107 13 l-115 0 -56 -75z"/>
<path d="M1010 818 c-25 -34 -49 -67 -53 -75 -6 -10 14 -13 106 -13 l115 0 56
75 56 75 -117 0 -118 -1 -45 -61z"/>
</g>
</svg>
